<mxfile host="app.diagrams.net" modified="2024-08-12T15:42:00.937Z" agent="Mozilla/5.0 (Windows NT 10.0; Win64; x64) AppleWebKit/537.36 (KHTML, like Gecko) Chrome/127.0.0.0 Safari/537.36" version="24.4.13" etag="z26k5PhlTf7PyUENhEBJ" type="github">
  <diagram name="Page-1" id="E2XaOP7co4WPaIL_Susp">
    <mxGraphModel>
      <root>
        <mxCell id="0" />
        <mxCell id="1" parent="0" />
      </root>
    </mxGraphModel>
  </diagram>
</mxfile>
